<?xml version="1.0" encoding="UTF-8" standalone="no"?><!-- Generator: Gravit.io --><svg xmlns="http://www.w3.org/2000/svg" xmlns:xlink="http://www.w3.org/1999/xlink" style="isolation:isolate" viewBox="0 0 500 500" width="500pt" height="500pt"><defs><clipPath id="_clipPath_ZVKDluB75Uk6qNrQEx1sRXbe9OxQFwxh"><rect width="500" height="500"/></clipPath></defs><g clip-path="url(#_clipPath_ZVKDluB75Uk6qNrQEx1sRXbe9OxQFwxh)"><clipPath id="_clipPath_iei6KKRiLEafTZ2C9HskWLNoEh86Hlxg"><path d=" M 500 0 L 500 500 L 0 500 L 0 0 L 500 0 Z " fill="rgb(255,255,255)"/></clipPath><g clip-path="url(#_clipPath_iei6KKRiLEafTZ2C9HskWLNoEh86Hlxg)"><path d=" M 0 500 L 500 500 L 500 0 L 0 0 L 0 500 Z " fill="rgb(0,159,153)" fill-opacity="0.5"/><path d=" M 151.372 171.164 L 183.459 171.164 L 183.459 212.301 L 151.372 212.301 C 140.012 212.301 130.804 203.092 130.804 191.732 C 130.804 180.373 140.012 171.164 151.372 171.164 Z " fill="rgb(56,124,190)"/><path d=" M 186.75 171.164 L 384.575 171.164 C 395.935 171.164 405.144 180.373 405.144 191.732 C 405.144 203.092 395.935 212.301 384.575 212.301 L 186.75 212.301 L 186.75 171.164 Z " fill="rgb(254,254,254)"/><path d=" M 166.995 184.578 C 168.853 186.436 168.853 189.461 166.995 191.32 C 165.137 193.178 162.112 193.178 160.254 191.32 C 158.396 189.461 158.396 186.436 160.254 184.578 C 162.112 182.72 165.137 182.72 166.995 184.578 Z  M 158.835 192.739 C 161.476 195.38 165.773 195.38 168.414 192.739 C 171.056 190.098 171.056 185.8 168.414 183.159 C 165.773 180.518 161.476 180.518 158.835 183.159 C 156.193 185.8 156.193 190.098 158.835 192.739 Z " fill="rgb(254,254,254)"/><path d=" M 156.47 193.685 L 157.889 195.104 L 160.254 192.739 L 158.835 191.32 L 156.47 193.685 Z " fill="rgb(254,254,254)"/><path d=" M 149.729 201.845 C 150.315 202.433 151.27 202.433 151.856 201.845 L 157.889 195.813 C 158.477 195.226 158.477 194.272 157.889 193.685 C 157.301 193.097 156.348 193.097 155.76 193.685 L 149.729 199.716 C 149.141 200.304 149.141 201.258 149.729 201.845 Z " fill="rgb(254,254,254)"/><path d=" M 287.177 156.737 L 381.738 156.737 L 381.738 152.67 L 284.909 152.67 C 285.703 154.008 286.457 155.362 287.177 156.737 Z " fill="rgb(97,186,193)"/><path d=" M 291.078 165.278 L 381.738 165.278 L 381.738 161.211 L 289.358 161.211 C 289.965 162.552 290.539 163.909 291.078 165.278 Z " fill="rgb(97,186,193)"/><path d=" M 293.156 171.164 L 381.738 171.164 L 381.738 169.751 L 292.7 169.751 C 292.856 170.221 293.008 170.692 293.156 171.164 Z " fill="rgb(97,186,193)"/><path d=" M 293.943 173.818 L 381.738 173.818 L 381.738 171.164 L 293.156 171.164 C 293.433 172.045 293.695 172.929 293.943 173.818 Z " fill="rgb(192,195,198)"/><path d=" M 295.878 182.358 L 381.738 182.358 L 381.738 178.292 L 295.068 178.292 C 295.369 179.639 295.64 180.998 295.878 182.358 Z " fill="rgb(192,195,198)"/><path d=" M 296.941 190.899 L 381.738 190.899 L 381.738 186.832 L 296.541 186.832 C 296.706 188.183 296.839 189.539 296.941 190.899 Z " fill="rgb(192,195,198)"/><path d=" M 297.162 199.439 L 381.738 199.439 L 381.738 195.373 L 297.161 195.373 C 297.193 196.725 297.193 198.083 297.162 199.439 Z " fill="rgb(192,195,198)"/><path d=" M 299.324 207.98 L 381.738 207.98 L 381.738 203.913 L 299.324 203.913 L 299.324 207.98 Z " fill="rgb(192,195,198)"/><path d=" M 272.629 136.573 L 268.965 124.354 L 262.366 127.51 C 266.062 130.289 269.486 133.322 272.629 136.573 Z " fill="rgb(117,205,218)"/><path d=" M 260.453 126.112 L 268.359 122.331 L 250.6 63.1 L 235.775 113.856 C 241.191 115.552 246.516 117.802 251.686 120.629 C 254.75 122.306 257.673 124.138 260.453 126.112 Z " fill="rgb(117,205,218)"/><path d=" M 227.523 111.71 L 219.954 92.697 L 212.247 109.921 C 217.343 110.064 222.453 110.655 227.523 111.71 Z " fill="rgb(117,205,218)"/><path d=" M 181.553 114.566 C 184.611 113.526 187.721 112.656 190.875 111.958 L 186.979 104.084 L 181.553 114.566 Z " fill="rgb(117,205,218)"/><path d=" M 121.256 161.771 L 129.84 161.771 C 130.8 159.621 131.856 157.489 133.006 155.387 C 140.535 141.621 151.231 130.683 163.689 122.986 L 149.033 87.395 L 121.256 161.771 Z " fill="rgb(117,205,218)"/><path d=" M 288.336 162.814 C 288.719 162.814 289.088 162.603 289.271 162.237 C 289.507 161.765 289.351 161.2 288.926 160.911 C 286.658 159.026 227.028 99.164 195.724 67.682 C 195.528 67.485 195.264 67.374 194.985 67.374 L 194.984 67.374 C 194.707 67.374 194.442 67.484 194.247 67.68 L 144.176 117.751 C 143.768 118.158 143.768 118.818 144.176 119.226 C 144.583 119.633 145.243 119.633 145.65 119.226 L 194.982 69.894 C 229.585 104.692 286.838 162.189 287.872 162.705 C 288.021 162.78 288.181 162.814 288.336 162.814 Z " fill="rgb(254,254,254)"/><path d=" M 149.571 121.037 L 139.728 123.675 L 142.364 113.83 L 149.571 121.037 Z " fill="rgb(254,254,254)"/><path d=" M 219.932 147.691 C 220.082 147.691 220.235 147.658 220.38 147.589 L 291.917 113.377 C 292.436 113.128 292.656 112.505 292.408 111.985 C 292.16 111.467 291.538 111.248 291.017 111.495 L 220.31 145.311 L 193.895 104.271 C 193.584 103.787 192.937 103.647 192.454 103.958 C 191.969 104.27 191.829 104.915 192.142 105.399 L 219.053 147.212 C 219.251 147.52 219.586 147.691 219.932 147.691 Z " fill="rgb(254,254,254)"/><path d=" M 189.539 108.847 L 189.048 98.667 L 198.11 103.331 L 189.539 108.847 Z " fill="rgb(254,254,254)"/><path d=" M 352.629 329.946 C 368.215 329.946 382.245 319.046 385.584 303.202 C 389.415 285.026 377.744 267.123 359.567 263.292 C 357.236 262.8 354.905 262.564 352.612 262.564 C 337.027 262.564 322.997 273.464 319.657 289.308 C 315.827 307.483 327.498 325.387 345.673 329.218 L 345.673 329.218 C 343.017 328.658 340.709 327.093 338.821 324.758 C 326.326 318.708 318.92 304.888 321.444 290.718 L 320.438 290.506 L 320.856 288.526 L 321.862 288.738 C 325.272 274.756 337.624 265.1 351.497 264.607 C 353.445 263.604 355.432 263.067 357.396 263.067 C 358.124 263.067 358.849 263.141 359.567 263.292 C 362.224 263.852 364.532 265.416 366.42 267.752 C 378.914 273.802 386.319 287.622 383.798 301.792 L 384.803 302.004 L 384.386 303.983 L 383.38 303.772 C 379.969 317.753 367.617 327.41 353.743 327.903 C 351.795 328.906 349.809 329.443 347.845 329.443 C 347.117 329.443 346.392 329.369 345.673 329.218 L 345.673 329.218 C 348.005 329.709 350.336 329.946 352.629 329.946 Z " fill="rgb(146,213,224)"/><path d=" M 347.845 329.443 C 349.809 329.443 351.795 328.906 353.743 327.903 C 360.991 324.17 367.694 313.991 370.635 301.085 L 368.656 300.668 C 365.262 315.548 356.854 326.623 348.81 327.387 C 347.896 328.566 346.969 329.257 346.05 329.257 C 345.924 329.257 345.798 329.244 345.673 329.218 C 346.392 329.369 347.117 329.443 347.845 329.443 Z  M 345.673 329.218 C 344.632 328.998 343.952 327.922 343.543 326.277 C 336.491 322.332 333.267 308.805 336.168 293.821 L 334.188 293.404 C 331.67 306.4 333.695 318.418 338.821 324.758 C 340.709 327.093 343.017 328.658 345.673 329.218 Z  M 346.071 327.236 C 346.073 327.236 346.076 327.236 346.078 327.236 C 346.073 327.235 346.069 327.234 346.065 327.233 C 346.067 327.234 346.069 327.235 346.071 327.236 Z  M 371.053 299.106 C 373.569 286.111 371.544 274.092 366.42 267.752 C 364.532 265.416 362.224 263.852 359.567 263.292 C 358.849 263.141 358.124 263.067 357.396 263.067 C 355.432 263.067 353.445 263.604 351.497 264.607 C 344.249 268.34 337.546 278.518 334.605 291.424 L 336.585 291.841 C 339.979 276.962 348.387 265.887 356.431 265.123 C 357.345 263.944 358.272 263.253 359.191 263.253 C 359.316 263.253 359.442 263.266 359.567 263.292 C 360.609 263.511 361.289 264.588 361.698 266.233 C 368.75 270.178 371.973 283.704 369.073 298.689 L 371.053 299.106 Z  M 359.177 265.277 C 359.174 265.276 359.172 265.275 359.17 265.273 C 359.167 265.274 359.165 265.274 359.162 265.274 C 359.167 265.275 359.172 265.276 359.177 265.277 Z " fill="rgb(146,213,224)"/><path d=" M 346.05 329.257 C 346.969 329.257 347.896 328.566 348.81 327.387 C 353.416 321.444 357.668 303.118 358.673 298.564 L 356.697 298.148 C 352.572 317.275 347.697 327.09 346.078 327.236 C 346.076 327.236 346.073 327.236 346.071 327.236 C 346.069 327.235 346.067 327.234 346.065 327.233 C 344.68 326.454 344.183 315.505 348.127 296.342 L 346.151 295.925 C 345.232 300.497 341.727 318.981 343.543 326.277 C 343.952 327.922 344.632 328.998 345.673 329.218 L 345.673 329.218 L 345.673 329.218 L 345.673 329.218 L 345.673 329.218 C 345.798 329.244 345.924 329.257 346.05 329.257 Z  M 359.09 296.585 C 360.009 292.012 363.514 273.529 361.698 266.233 C 361.289 264.588 360.609 263.511 359.567 263.292 C 359.442 263.266 359.316 263.253 359.191 263.253 C 358.272 263.253 357.345 263.944 356.431 265.123 C 351.826 271.065 347.574 289.39 346.568 293.946 L 348.545 294.362 C 352.669 275.238 357.543 265.422 359.162 265.274 C 359.165 265.274 359.167 265.274 359.17 265.273 C 359.172 265.275 359.174 265.276 359.177 265.277 C 360.561 266.058 361.059 277.007 357.114 296.168 L 359.09 296.585 Z " fill="rgb(146,213,224)"/><path d=" M 384.386 303.983 L 384.803 302.004 L 383.798 301.792 L 371.053 299.106 L 369.073 298.689 L 359.09 296.585 L 357.114 296.168 L 348.545 294.362 L 346.568 293.946 L 336.585 291.841 L 334.605 291.424 L 321.862 288.738 L 320.856 288.526 L 320.438 290.506 L 321.444 290.718 L 334.188 293.404 L 336.168 293.821 L 346.151 295.925 L 348.127 296.342 L 356.697 298.148 L 358.673 298.564 L 368.656 300.668 L 370.635 301.085 L 383.38 303.772 L 384.386 303.983 Z " fill="rgb(146,213,224)"/><path d=" M 303.519 266.339 C 309.508 266.339 315.493 264.031 320.009 259.429 C 328.93 250.336 328.791 235.682 319.699 226.761 C 315.21 222.357 309.363 220.16 303.522 220.16 C 300.093 220.16 296.666 220.917 293.514 222.427 C 293.327 223.049 293.132 223.672 292.931 224.291 C 296.208 222.463 299.865 221.547 303.522 221.547 C 307.339 221.547 311.158 222.544 314.549 224.543 C 316.599 224.734 318.37 225.457 319.699 226.761 C 321.028 228.065 321.784 229.821 322.014 231.867 C 327.003 239.975 326.183 250.695 319.497 257.954 L 319.999 258.447 L 319.028 259.438 L 318.525 258.944 C 314.344 262.946 308.933 264.952 303.519 264.952 C 299.701 264.953 295.882 263.955 292.49 261.955 C 290.441 261.765 288.67 261.042 287.341 259.738 L 287.341 259.738 C 291.831 264.143 297.677 266.339 303.519 266.339 Z  M 287.341 259.738 L 287.341 259.738 C 286.013 258.434 285.256 256.678 285.027 254.632 C 283.475 252.111 282.485 249.337 282.059 246.493 C 281.693 247.034 281.319 247.572 280.942 248.102 C 281.856 252.382 283.99 256.45 287.341 259.738 Z " fill="rgb(146,213,224)"/><path d=" M 293.625 262.007 C 299.065 262.007 306.116 258.64 312.15 252.689 L 311.16 251.717 C 305.381 257.416 298.704 260.678 293.697 260.678 C 292.247 260.678 290.937 260.405 289.83 259.837 C 289.306 260.024 288.833 260.127 288.426 260.127 C 287.981 260.127 287.613 260.005 287.341 259.738 C 288.67 261.042 290.441 261.765 292.49 261.955 C 292.86 261.99 293.238 262.007 293.625 262.007 Z  M 287.341 259.738 C 286.82 259.227 286.825 258.354 287.195 257.252 C 284.575 252.37 287.703 243.362 294.909 235.772 L 293.919 234.8 C 287.668 241.383 284.404 249.076 285.027 254.632 C 285.256 256.678 286.013 258.434 287.341 259.738 Z  M 288.306 258.741 C 288.304 258.739 288.302 258.737 288.3 258.735 C 288.301 258.737 288.302 258.738 288.302 258.739 C 288.304 258.74 288.305 258.741 288.306 258.741 Z  M 313.122 251.699 C 319.371 245.117 322.636 237.423 322.014 231.867 C 321.784 229.821 321.028 228.065 319.699 226.761 C 318.37 225.457 316.599 224.734 314.549 224.543 C 314.18 224.509 313.802 224.492 313.415 224.492 C 307.975 224.492 300.924 227.859 294.89 233.81 L 295.881 234.782 C 301.659 229.084 308.337 225.821 313.344 225.821 C 314.793 225.821 316.103 226.094 317.21 226.662 C 317.734 226.475 318.207 226.372 318.615 226.372 C 319.059 226.372 319.427 226.494 319.699 226.761 C 320.22 227.272 320.215 228.145 319.845 229.247 C 322.465 234.13 319.336 243.137 312.132 250.727 L 313.122 251.699 Z  M 318.74 227.764 C 318.739 227.762 318.738 227.761 318.738 227.76 C 318.736 227.759 318.735 227.758 318.734 227.758 C 318.736 227.76 318.738 227.762 318.74 227.764 Z " fill="rgb(146,213,224)"/><path d=" M 288.426 260.127 C 288.833 260.127 289.306 260.024 289.83 259.837 C 294.684 258.103 303.905 249.079 306.166 246.818 L 305.178 245.848 C 296.284 254.827 290.053 258.786 288.533 258.786 C 288.44 258.786 288.364 258.771 288.306 258.741 C 288.305 258.741 288.304 258.74 288.302 258.739 C 288.302 258.738 288.301 258.737 288.3 258.735 C 287.786 257.776 291.538 251.264 300.891 241.642 L 299.903 240.672 C 297.684 242.975 288.838 252.365 287.195 257.252 C 286.825 258.354 286.82 259.227 287.341 259.738 L 287.341 259.738 L 287.341 259.738 L 287.341 259.738 L 287.341 259.738 C 287.613 260.005 287.981 260.127 288.426 260.127 Z  M 307.138 245.827 C 309.356 243.524 318.202 234.134 319.845 229.247 C 320.215 228.145 320.22 227.272 319.699 226.761 C 319.427 226.494 319.059 226.372 318.615 226.372 C 318.207 226.372 317.734 226.475 317.21 226.662 C 312.356 228.396 303.136 237.42 300.874 239.682 L 301.863 240.651 C 310.757 231.672 316.987 227.713 318.507 227.713 C 318.601 227.713 318.676 227.728 318.734 227.758 C 318.735 227.758 318.736 227.759 318.738 227.76 C 318.738 227.761 318.739 227.762 318.74 227.764 C 319.254 228.723 315.503 235.235 306.149 244.857 L 307.138 245.827 Z " fill="rgb(146,213,224)"/><path d=" M 319.028 259.438 L 319.999 258.447 L 319.497 257.954 L 313.122 251.699 L 312.132 250.727 L 307.138 245.827 L 306.149 244.857 L 301.863 240.651 L 300.874 239.682 L 295.881 234.782 L 294.89 233.81 L 290.897 229.891 C 290.711 230.353 290.52 230.815 290.326 231.275 L 293.919 234.8 L 294.909 235.772 L 299.903 240.672 L 300.891 241.642 L 305.178 245.848 L 306.166 246.818 L 311.16 251.717 L 312.15 252.689 L 318.525 258.944 L 319.028 259.438 Z " fill="rgb(146,213,224)"/><path d=" M 330.591 99.244 C 331.116 99.244 331.541 98.819 331.541 98.295 L 331.541 93.551 C 331.541 93.027 331.116 92.602 330.591 92.602 C 330.067 92.602 329.643 93.027 329.643 93.551 L 329.643 98.295 C 329.643 98.819 330.067 99.244 330.591 99.244 Z " fill="rgb(254,254,254)"/><path d=" M 334.045 100.871 C 334.288 100.871 334.53 100.778 334.716 100.593 L 338.071 97.238 C 338.441 96.867 338.441 96.267 338.071 95.896 C 337.7 95.525 337.1 95.525 336.729 95.896 L 333.374 99.251 C 333.003 99.622 333.003 100.222 333.374 100.593 C 333.559 100.778 333.802 100.871 334.045 100.871 Z " fill="rgb(254,254,254)"/><path d=" M 335.336 104.463 L 340.081 104.463 C 340.605 104.463 341.03 104.039 341.03 103.515 C 341.03 102.99 340.605 102.565 340.081 102.565 L 335.336 102.565 C 334.812 102.565 334.387 102.99 334.387 103.515 C 334.387 104.039 334.812 104.463 335.336 104.463 Z " fill="rgb(254,254,254)"/><path d=" M 337.064 111.272 C 337.307 111.272 337.55 111.179 337.735 110.994 C 338.106 110.623 338.106 110.023 337.735 109.652 L 334.38 106.297 C 334.01 105.926 333.409 105.926 333.039 106.297 C 332.668 106.667 332.668 107.268 333.039 107.639 L 336.394 110.994 C 336.579 111.179 336.822 111.272 337.064 111.272 Z " fill="rgb(254,254,254)"/><path d=" M 330.117 113.953 C 330.641 113.953 331.066 113.528 331.066 113.004 L 331.066 108.259 C 331.066 107.735 330.641 107.311 330.117 107.311 C 329.593 107.311 329.168 107.735 329.168 108.259 L 329.168 113.004 C 329.168 113.528 329.593 113.953 330.117 113.953 Z " fill="rgb(254,254,254)"/><path d=" M 323.309 110.937 C 323.552 110.937 323.794 110.844 323.979 110.658 L 327.334 107.303 C 327.706 106.933 327.706 106.332 327.334 105.961 C 326.964 105.591 326.364 105.591 325.993 105.961 L 322.638 109.316 C 322.267 109.687 322.267 110.288 322.638 110.658 C 322.823 110.844 323.066 110.937 323.309 110.937 Z " fill="rgb(254,254,254)"/><path d=" M 320.628 103.989 L 325.373 103.989 C 325.896 103.989 326.321 103.564 326.321 103.04 C 326.321 102.516 325.896 102.091 325.373 102.091 L 320.628 102.091 C 320.104 102.091 319.679 102.516 319.679 103.04 C 319.679 103.564 320.104 103.989 320.628 103.989 Z " fill="rgb(254,254,254)"/><path d=" M 327 100.536 C 327.242 100.536 327.485 100.443 327.67 100.258 C 328.041 99.887 328.041 99.287 327.67 98.916 L 324.315 95.56 C 323.944 95.19 323.344 95.19 322.973 95.56 C 322.603 95.932 322.603 96.532 322.973 96.903 L 326.328 100.258 C 326.514 100.443 326.756 100.536 327 100.536 Z " fill="rgb(254,254,254)"/><path d=" M 364.056 235.538 C 364.58 235.538 365.005 235.113 365.005 234.589 L 365.005 229.845 C 365.005 229.321 364.58 228.896 364.056 228.896 C 363.532 228.896 363.107 229.321 363.107 229.845 L 363.107 234.589 C 363.107 235.113 363.532 235.538 364.056 235.538 Z " fill="rgb(254,254,254)"/><path d=" M 367.509 237.165 C 367.752 237.165 367.995 237.072 368.18 236.887 L 371.536 233.532 C 371.906 233.161 371.906 232.561 371.536 232.19 C 371.165 231.819 370.564 231.819 370.193 232.19 L 366.838 235.545 C 366.468 235.916 366.468 236.516 366.838 236.887 C 367.024 237.072 367.267 237.165 367.509 237.165 Z " fill="rgb(254,254,254)"/><path d=" M 368.801 240.757 L 373.545 240.757 C 374.069 240.757 374.495 240.333 374.495 239.808 C 374.495 239.284 374.069 238.859 373.545 238.859 L 368.801 238.859 C 368.277 238.859 367.852 239.284 367.852 239.808 C 367.852 240.333 368.277 240.757 368.801 240.757 Z " fill="rgb(254,254,254)"/><path d=" M 370.529 247.566 C 370.772 247.566 371.015 247.473 371.2 247.288 C 371.571 246.917 371.571 246.316 371.2 245.946 L 367.845 242.591 C 367.474 242.22 366.874 242.22 366.503 242.591 C 366.132 242.961 366.132 243.562 366.503 243.933 L 369.858 247.288 C 370.043 247.473 370.286 247.566 370.529 247.566 Z " fill="rgb(254,254,254)"/><path d=" M 363.582 250.247 C 364.106 250.247 364.531 249.822 364.531 249.298 L 364.531 244.553 C 364.531 244.029 364.106 243.604 363.582 243.604 C 363.058 243.604 362.633 244.029 362.633 244.553 L 362.633 249.298 C 362.633 249.822 363.058 250.247 363.582 250.247 Z " fill="rgb(254,254,254)"/><path d=" M 356.773 247.23 C 357.016 247.23 357.259 247.138 357.444 246.952 L 360.799 243.597 C 361.17 243.227 361.17 242.626 360.799 242.255 C 360.429 241.885 359.828 241.885 359.458 242.255 L 356.103 245.61 C 355.731 245.981 355.731 246.582 356.103 246.952 C 356.288 247.138 356.531 247.23 356.773 247.23 Z " fill="rgb(254,254,254)"/><path d=" M 354.092 240.283 L 358.837 240.283 C 359.361 240.283 359.786 239.858 359.786 239.334 C 359.786 238.81 359.361 238.385 358.837 238.385 L 354.092 238.385 C 353.568 238.385 353.144 238.81 353.144 239.334 C 353.144 239.858 353.568 240.283 354.092 240.283 Z " fill="rgb(254,254,254)"/><path d=" M 360.464 236.83 C 360.707 236.83 360.949 236.737 361.135 236.552 C 361.505 236.181 361.505 235.581 361.135 235.209 L 357.78 231.854 C 357.409 231.484 356.809 231.484 356.438 231.854 C 356.067 232.225 356.067 232.826 356.438 233.196 L 359.793 236.552 C 359.979 236.737 360.221 236.83 360.464 236.83 Z " fill="rgb(254,254,254)"/><path d=" M 399.924 136.349 C 400.448 136.349 400.873 135.924 400.873 135.4 L 400.873 130.656 C 400.873 130.132 400.448 129.707 399.924 129.707 C 399.4 129.707 398.976 130.132 398.976 130.656 L 398.976 135.4 C 398.976 135.924 399.4 136.349 399.924 136.349 Z " fill="rgb(254,254,254)"/><path d=" M 403.378 137.976 C 403.621 137.976 403.863 137.884 404.049 137.698 L 407.404 134.343 C 407.774 133.973 407.774 133.372 407.404 133.001 C 407.033 132.63 406.433 132.63 406.062 133.001 L 402.707 136.356 C 402.336 136.727 402.336 137.328 402.707 137.698 C 402.892 137.884 403.135 137.976 403.378 137.976 Z " fill="rgb(254,254,254)"/><path d=" M 404.669 141.568 L 409.414 141.568 C 409.938 141.568 410.363 141.144 410.363 140.62 C 410.363 140.096 409.938 139.671 409.414 139.671 L 404.669 139.671 C 404.145 139.671 403.72 140.096 403.72 140.62 C 403.72 141.144 404.145 141.568 404.669 141.568 Z " fill="rgb(254,254,254)"/><path d=" M 406.398 148.377 C 406.64 148.377 406.883 148.284 407.068 148.099 C 407.439 147.728 407.439 147.128 407.068 146.757 L 403.713 143.402 C 403.342 143.031 402.742 143.031 402.371 143.402 C 402.001 143.772 402.001 144.373 402.371 144.744 L 405.727 148.099 C 405.912 148.284 406.154 148.377 406.398 148.377 Z " fill="rgb(254,254,254)"/><path d=" M 399.45 151.058 C 399.974 151.058 400.399 150.633 400.399 150.109 L 400.399 145.364 C 400.399 144.84 399.974 144.416 399.45 144.416 C 398.926 144.416 398.501 144.84 398.501 145.364 L 398.501 150.109 C 398.501 150.633 398.926 151.058 399.45 151.058 Z " fill="rgb(254,254,254)"/><path d=" M 392.642 148.042 C 392.884 148.042 393.127 147.949 393.312 147.764 L 396.667 144.408 C 397.038 144.038 397.038 143.437 396.667 143.066 C 396.297 142.696 395.696 142.696 395.326 143.066 L 391.971 146.422 C 391.6 146.792 391.6 147.393 391.971 147.764 C 392.156 147.949 392.399 148.042 392.642 148.042 Z " fill="rgb(254,254,254)"/><path d=" M 389.96 141.094 L 394.705 141.094 C 395.229 141.094 395.654 140.669 395.654 140.145 C 395.654 139.621 395.229 139.196 394.705 139.196 L 389.96 139.196 C 389.437 139.196 389.012 139.621 389.012 140.145 C 389.012 140.669 389.437 141.094 389.96 141.094 Z " fill="rgb(254,254,254)"/><path d=" M 396.332 137.641 C 396.575 137.641 396.818 137.548 397.003 137.363 C 397.374 136.992 397.374 136.392 397.003 136.021 L 393.648 132.666 C 393.277 132.295 392.677 132.295 392.306 132.666 C 391.936 133.037 391.936 133.637 392.306 134.008 L 395.661 137.363 C 395.847 137.548 396.089 137.641 396.332 137.641 Z " fill="rgb(254,254,254)"/><path d=" M 276.831 284.908 C 277.355 284.908 277.78 284.483 277.78 283.96 L 277.78 279.215 C 277.78 278.69 277.355 278.266 276.831 278.266 C 276.307 278.266 275.882 278.69 275.882 279.215 L 275.882 283.96 C 275.882 284.483 276.307 284.908 276.831 284.908 Z " fill="rgb(254,254,254)"/><path d=" M 280.285 286.535 C 280.527 286.535 280.77 286.442 280.956 286.257 L 284.311 282.902 C 284.681 282.531 284.681 281.931 284.311 281.561 C 283.94 281.189 283.339 281.189 282.969 281.561 L 279.614 284.915 C 279.243 285.286 279.243 285.887 279.614 286.257 C 279.799 286.442 280.042 286.535 280.285 286.535 Z " fill="rgb(254,254,254)"/><path d=" M 281.576 290.128 L 286.321 290.128 C 286.845 290.128 287.27 289.703 287.27 289.179 C 287.27 288.654 286.845 288.229 286.321 288.229 L 281.576 288.229 C 281.052 288.229 280.627 288.654 280.627 289.179 C 280.627 289.703 281.052 290.128 281.576 290.128 Z " fill="rgb(254,254,254)"/><path d=" M 283.304 296.936 C 283.547 296.936 283.79 296.844 283.975 296.658 C 284.346 296.287 284.346 295.687 283.975 295.316 L 280.62 291.961 C 280.25 291.591 279.649 291.591 279.278 291.961 C 278.908 292.332 278.908 292.933 279.278 293.303 L 282.633 296.658 C 282.819 296.844 283.062 296.936 283.304 296.936 Z " fill="rgb(254,254,254)"/><path d=" M 276.357 299.617 C 276.881 299.617 277.306 299.192 277.306 298.668 L 277.306 293.923 C 277.306 293.399 276.881 292.975 276.357 292.975 C 275.833 292.975 275.408 293.399 275.408 293.923 L 275.408 298.668 C 275.408 299.192 275.833 299.617 276.357 299.617 Z " fill="rgb(254,254,254)"/><path d=" M 269.548 296.601 C 269.792 296.601 270.034 296.508 270.219 296.322 L 273.574 292.968 C 273.945 292.597 273.945 291.996 273.574 291.626 C 273.204 291.255 272.603 291.255 272.232 291.626 L 268.877 294.98 C 268.507 295.352 268.507 295.952 268.877 296.322 C 269.063 296.508 269.306 296.601 269.548 296.601 Z " fill="rgb(254,254,254)"/><path d=" M 266.868 289.653 L 271.612 289.653 C 272.136 289.653 272.561 289.229 272.561 288.704 C 272.561 288.18 272.136 287.755 271.612 287.755 L 266.868 287.755 C 266.344 287.755 265.918 288.18 265.918 288.704 C 265.918 289.229 266.344 289.653 266.868 289.653 Z " fill="rgb(254,254,254)"/><path d=" M 273.239 286.2 C 273.482 286.2 273.725 286.107 273.91 285.922 C 274.281 285.551 274.281 284.95 273.91 284.58 L 270.555 281.225 C 270.184 280.854 269.583 280.854 269.213 281.225 C 268.842 281.596 268.842 282.196 269.213 282.566 L 272.568 285.922 C 272.753 286.107 272.996 286.2 273.239 286.2 Z " fill="rgb(254,254,254)"/><path d=" M 147.832 295.943 L 160.094 302.649 L 180.106 266.062 L 167.845 259.354 L 147.832 295.943 Z " fill="rgb(80,82,84)"/><path d=" M 158.775 275.937 L 166.299 262.181 C 168.21 263.479 170.195 264.704 172.265 265.836 C 174.334 266.968 176.436 267.979 178.561 268.887 L 171.037 282.643 C 168.925 281.695 166.826 280.685 164.761 279.555 C 162.694 278.425 160.712 277.203 158.775 275.937 Z " fill="rgb(45,46,48)"/><path d=" M 209.66 269.169 C 235.061 269.169 259.675 255.663 272.723 231.806 C 276.158 225.526 278.556 218.96 279.976 212.301 L 273.355 212.301 C 272.014 218.011 269.903 223.522 267.064 228.711 C 260.79 240.184 251.337 249.409 239.73 255.389 C 239.1 255.713 238.427 255.867 237.764 255.867 C 237.039 255.867 236.326 255.683 235.694 255.337 C 234.967 254.939 234.347 254.327 233.939 253.535 C 232.851 251.424 233.681 248.831 235.792 247.743 C 245.866 242.553 254.071 234.544 259.52 224.584 C 261.658 220.675 263.321 216.557 264.483 212.301 L 186.75 212.301 L 186.75 171.164 L 265.596 171.164 L 265.596 169.751 L 276.019 169.751 C 275.391 168.24 274.71 166.746 273.979 165.278 L 265.596 165.278 L 265.596 161.771 L 247.452 161.771 L 215.522 161.771 L 179.66 161.771 L 147.35 161.771 C 147.138 162.142 146.93 162.515 146.725 162.891 C 144.848 166.322 143.28 169.84 142.013 173.411 C 144.82 171.974 148.002 171.164 151.372 171.164 L 183.459 171.164 L 183.459 212.301 L 151.372 212.301 C 146.591 212.301 142.19 210.669 138.697 207.933 C 141.91 229.386 154.767 249.135 175.267 260.348 C 186.203 266.329 198.015 269.168 209.66 269.169 Z " fill="rgb(126,206,214)"/><path d=" M 151.372 212.301 L 183.459 212.301 L 183.459 171.164 L 151.372 171.164 C 148.002 171.164 144.82 171.974 142.013 173.411 C 139.239 181.227 137.902 189.3 137.903 197.296 C 137.904 200.866 138.172 204.424 138.697 207.933 C 142.19 210.669 146.591 212.301 151.372 212.301 Z  M 158.327 194.665 C 158.35 195.078 158.204 195.498 157.889 195.813 L 151.856 201.845 C 151.563 202.139 151.178 202.286 150.793 202.286 C 150.407 202.286 150.022 202.139 149.729 201.845 C 149.141 201.258 149.141 200.304 149.729 199.716 L 155.76 193.685 C 156.054 193.391 156.439 193.244 156.824 193.244 C 156.852 193.244 156.88 193.245 156.908 193.246 L 158.178 191.977 C 156.215 189.327 156.434 185.559 158.835 183.159 C 160.155 181.838 161.89 181.178 163.625 181.178 C 165.359 181.178 167.094 181.838 168.414 183.159 C 171.056 185.8 171.056 190.098 168.414 192.739 C 167.094 194.059 165.359 194.72 163.625 194.72 C 162.206 194.72 160.789 194.278 159.597 193.396 L 158.327 194.665 Z  M 163.625 192.714 C 164.845 192.714 166.066 192.249 166.995 191.32 C 168.853 189.461 168.853 186.436 166.995 184.578 C 166.066 183.649 164.845 183.184 163.625 183.184 C 162.404 183.184 161.183 183.649 160.254 184.578 C 158.396 186.436 158.396 189.461 160.254 191.32 C 161.183 192.249 162.404 192.714 163.625 192.714 Z " fill="rgb(106,168,212)"/><path d=" M 186.75 212.301 L 264.483 212.301 C 264.819 211.072 265.113 209.832 265.364 208.582 C 265.775 206.54 267.57 205.129 269.576 205.129 C 269.857 205.129 270.142 205.157 270.428 205.214 C 272.76 205.684 274.264 207.951 273.796 210.278 C 273.66 210.955 273.513 211.629 273.355 212.301 L 279.976 212.301 C 280.886 208.034 281.394 203.73 281.516 199.439 L 265.596 199.439 L 265.596 195.373 L 281.515 195.373 C 281.473 193.876 281.384 192.385 281.248 190.899 L 273.338 190.899 C 272.691 191.663 271.777 192.206 270.711 192.37 C 270.489 192.404 270.268 192.421 270.05 192.421 C 269.315 192.421 268.612 192.232 267.995 191.895 C 267.532 191.641 267.117 191.303 266.773 190.899 L 265.596 190.899 L 265.596 187.507 C 264.971 183.984 264.013 180.51 262.742 177.164 C 261.899 174.944 263.016 172.461 265.236 171.618 C 265.356 171.572 265.475 171.533 265.596 171.499 L 265.596 171.164 L 186.75 171.164 L 186.75 212.301 Z  M 274.204 186.832 L 280.761 186.832 C 280.538 185.332 280.267 183.84 279.95 182.358 L 273.31 182.358 C 273.66 183.84 273.958 185.332 274.204 186.832 Z  M 272.211 178.292 L 278.956 178.292 C 278.542 176.787 278.078 175.294 277.567 173.818 L 270.658 173.818 C 270.703 173.914 270.744 174.012 270.782 174.112 C 271.305 175.488 271.781 176.883 272.211 178.292 Z " fill="rgb(229,229,228)"/><path d=" M 163.625 194.72 C 165.359 194.72 167.094 194.059 168.414 192.739 C 171.056 190.098 171.056 185.8 168.414 183.159 C 167.094 181.838 165.359 181.178 163.625 181.178 C 161.89 181.178 160.155 181.838 158.835 183.159 C 156.434 185.559 156.215 189.327 158.178 191.977 L 158.835 191.32 L 160.254 192.739 L 159.597 193.396 C 160.789 194.278 162.206 194.72 163.625 194.72 Z  M 163.625 183.184 C 164.845 183.184 166.066 183.649 166.995 184.578 C 168.853 186.436 168.853 189.461 166.995 191.32 C 166.066 192.249 164.845 192.714 163.625 192.714 C 162.404 192.714 161.183 192.249 160.254 191.32 C 158.396 189.461 158.396 186.436 160.254 184.578 C 161.183 183.649 162.404 183.184 163.625 183.184 Z " fill="rgb(229,229,228)"/><path d=" M 158.327 194.665 L 159.597 193.396 L 160.254 192.739 L 158.835 191.32 L 158.178 191.977 L 156.908 193.246 C 157.265 193.266 157.616 193.412 157.889 193.685 C 158.161 193.957 158.307 194.308 158.327 194.665 Z " fill="rgb(229,229,228)"/><path d=" M 150.793 202.286 C 151.178 202.286 151.563 202.139 151.856 201.845 L 157.889 195.813 C 158.204 195.498 158.35 195.078 158.327 194.665 C 158.307 194.308 158.161 193.957 157.889 193.685 C 157.616 193.412 157.265 193.266 156.908 193.246 C 156.88 193.245 156.852 193.244 156.824 193.244 C 156.439 193.244 156.054 193.391 155.76 193.685 L 149.729 199.716 C 149.141 200.304 149.141 201.258 149.729 201.845 C 150.022 202.139 150.407 202.286 150.793 202.286 Z " fill="rgb(229,229,228)"/><path d=" M 265.596 165.278 L 273.979 165.278 C 273.389 164.094 272.765 162.923 272.109 161.771 L 265.596 161.771 L 265.596 165.278 Z " fill="rgb(148,198,202)"/><path d=" M 265.596 171.164 L 276.588 171.164 C 276.404 170.691 276.214 170.22 276.019 169.751 L 265.596 169.751 L 265.596 171.164 Z " fill="rgb(148,198,202)"/><path d=" M 270.658 173.818 L 277.567 173.818 C 277.258 172.926 276.933 172.044 276.588 171.164 L 265.596 171.164 L 265.596 171.499 C 265.982 171.389 266.374 171.337 266.761 171.337 C 268.394 171.337 269.938 172.274 270.658 173.818 Z " fill="rgb(201,203,205)"/><path d=" M 273.31 182.358 L 279.95 182.358 C 279.658 180.993 279.327 179.637 278.956 178.292 L 272.211 178.292 C 272.62 179.635 272.987 180.992 273.31 182.358 Z " fill="rgb(201,203,205)"/><path d=" M 265.596 190.899 L 266.773 190.899 C 266.277 190.314 265.931 189.589 265.806 188.775 C 265.741 188.352 265.671 187.929 265.596 187.507 L 265.596 190.899 Z  M 273.338 190.899 L 281.248 190.899 C 281.124 189.538 280.962 188.181 280.761 186.832 L 274.204 186.832 C 274.239 187.043 274.273 187.254 274.305 187.465 C 274.503 188.746 274.113 189.982 273.338 190.899 Z " fill="rgb(201,203,205)"/><path d=" M 265.596 199.439 L 281.516 199.439 C 281.554 198.083 281.554 196.724 281.515 195.373 L 265.596 195.373 L 265.596 199.439 Z " fill="rgb(201,203,205)"/><path d=" M 247.452 161.771 L 265.596 161.771 L 265.596 161.211 L 271.787 161.211 C 270.903 159.689 269.96 158.196 268.963 156.737 L 265.596 156.737 L 265.596 154.022 L 261.03 154.022 L 244.367 154.022 L 247.452 161.771 Z " fill="rgb(152,214,220)"/><path d=" M 265.596 156.737 L 268.963 156.737 C 268.013 155.35 267.013 153.994 265.963 152.67 L 265.963 152.67 C 266.318 153.118 266.665 153.566 267.009 154.022 L 265.596 154.022 L 265.596 156.737 Z " fill="rgb(170,206,209)"/><path d=" M 265.596 161.771 L 272.109 161.771 C 272.002 161.583 271.896 161.398 271.787 161.211 L 265.596 161.211 L 265.596 161.771 Z " fill="rgb(170,206,209)"/><path d=" M 215.522 161.771 L 247.452 161.771 L 221.779 161.771 L 224.043 154.022 L 221.979 154.022 L 211.687 154.022 L 215.522 161.771 Z " fill="rgb(152,214,220)"/><path d=" M 221.779 161.771 L 247.452 161.771 L 244.367 154.022 L 224.043 154.022 L 221.779 161.771 Z " fill="rgb(173,222,224)"/><path d=" M 179.66 161.771 L 215.522 161.771 L 189.048 161.771 L 192.515 154.022 L 178.121 154.022 L 176.469 154.022 L 179.66 161.771 Z " fill="rgb(152,214,220)"/><path d=" M 189.048 161.771 L 215.522 161.771 L 211.687 154.022 L 192.515 154.022 L 189.048 161.771 Z " fill="rgb(173,222,224)"/><path d=" M 147.35 161.771 L 179.66 161.771 L 157.116 161.771 L 161.128 154.022 L 152.449 154.022 L 152.449 154.022 C 157.293 147.603 163.081 142.178 169.502 137.845 L 169.502 137.845 C 160.639 143.826 152.987 151.881 147.35 161.771 Z " fill="rgb(152,214,220)"/><path d=" M 157.116 161.771 L 179.66 161.771 L 176.469 154.022 L 161.128 154.022 L 157.116 161.771 Z " fill="rgb(173,222,224)"/><path d=" M 270.05 192.421 C 270.268 192.421 270.489 192.404 270.711 192.37 C 271.777 192.206 272.691 191.663 273.338 190.899 L 266.773 190.899 C 267.117 191.303 267.532 191.641 267.995 191.895 C 268.612 192.232 269.315 192.421 270.05 192.421 Z  M 265.596 187.507 L 265.596 186.832 L 274.204 186.832 C 273.958 185.332 273.66 183.84 273.31 182.358 L 265.596 182.358 L 265.596 178.292 L 272.211 178.292 C 271.781 176.883 271.305 175.488 270.782 174.112 C 270.744 174.012 270.703 173.914 270.658 173.818 L 265.596 173.818 L 265.596 171.499 C 265.475 171.533 265.356 171.572 265.236 171.618 C 263.016 172.461 261.899 174.944 262.742 177.164 C 264.013 180.51 264.971 183.984 265.596 187.507 Z " fill="rgb(240,240,239)"/><path d=" M 265.596 173.818 L 270.658 173.818 C 269.938 172.274 268.394 171.337 266.761 171.337 C 266.374 171.337 265.982 171.389 265.596 171.499 L 265.596 173.818 Z " fill="rgb(226,226,227)"/><path d=" M 265.596 182.358 L 273.31 182.358 C 272.987 180.992 272.62 179.635 272.211 178.292 L 265.596 178.292 L 265.596 182.358 Z " fill="rgb(226,226,227)"/><path d=" M 266.773 190.899 L 273.338 190.899 C 274.113 189.982 274.503 188.746 274.305 187.465 C 274.273 187.254 274.239 187.043 274.204 186.832 L 265.596 186.832 L 265.596 187.507 C 265.671 187.929 265.741 188.352 265.806 188.775 C 265.931 189.589 266.277 190.314 266.773 190.899 Z " fill="rgb(226,226,227)"/><path d=" M 237.764 255.867 C 238.427 255.867 239.1 255.713 239.73 255.389 C 251.337 249.409 260.79 240.184 267.064 228.711 C 269.903 223.522 272.014 218.011 273.355 212.301 L 264.483 212.301 C 263.321 216.557 261.658 220.675 259.52 224.584 C 254.071 234.544 245.866 242.553 235.792 247.743 C 233.681 248.831 232.851 251.424 233.939 253.535 C 234.347 254.327 234.967 254.939 235.694 255.337 C 236.326 255.683 237.039 255.867 237.764 255.867 Z " fill="rgb(182,225,230)"/><path d=" M 264.483 212.301 L 273.355 212.301 C 273.513 211.629 273.66 210.955 273.796 210.278 C 274.264 207.951 272.76 205.684 270.428 205.214 C 270.142 205.157 269.857 205.129 269.576 205.129 C 267.57 205.129 265.775 206.54 265.364 208.582 C 265.113 209.832 264.819 211.072 264.483 212.301 Z " fill="rgb(240,240,239)"/><path d=" M 175.267 260.348 C 210.06 279.378 253.693 266.6 272.723 231.806 C 291.754 197.012 278.975 153.379 244.182 134.349 C 209.388 115.318 165.755 128.097 146.725 162.891 C 127.694 197.684 140.473 241.317 175.267 260.348 Z  M 251.686 120.629 C 294.056 143.804 309.618 196.939 286.443 239.31 C 263.268 281.681 210.133 297.242 167.763 274.066 C 125.392 250.892 109.831 197.757 133.006 155.387 C 156.18 113.016 209.315 97.455 251.686 120.629 Z " fill="rgb(61,63,64)"/><path d=" M 83.838 401.732 L 105.54 413.604 L 164.814 305.231 L 143.111 293.361 L 83.838 401.732 Z " fill="rgb(61,63,64)"/><path d=" M 98.116 409.543 L 102.412 411.893 L 161.687 303.521 L 157.391 301.171 L 98.116 409.543 Z " fill="rgb(80,82,84)"/><path d=" M 90.973 405.636 L 83.838 401.732 L 143.111 293.361 L 150.247 297.264 L 90.973 405.636 Z " fill="rgb(45,46,48)"/><path d=" M 195.876 267.184 C 196.4 267.184 196.825 266.759 196.825 266.235 L 196.825 261.49 C 196.825 260.967 196.4 260.542 195.876 260.542 C 195.353 260.542 194.928 260.967 194.928 261.49 L 194.928 266.235 C 194.928 266.759 195.353 267.184 195.876 267.184 Z " fill="rgb(254,254,254)"/><path d=" M 199.33 268.811 C 199.572 268.811 199.815 268.719 200.001 268.533 L 203.355 265.178 C 203.727 264.808 203.727 264.207 203.355 263.836 C 202.985 263.466 202.385 263.466 202.014 263.836 L 198.659 267.191 C 198.288 267.562 198.288 268.162 198.659 268.533 C 198.844 268.719 199.087 268.811 199.33 268.811 Z " fill="rgb(254,254,254)"/><path d=" M 200.621 272.403 L 205.365 272.403 C 205.89 272.403 206.314 271.979 206.314 271.454 C 206.314 270.931 205.89 270.506 205.365 270.506 L 200.621 270.506 C 200.097 270.506 199.672 270.931 199.672 271.454 C 199.672 271.979 200.097 272.403 200.621 272.403 Z " fill="rgb(254,254,254)"/><path d=" M 202.35 279.212 C 202.592 279.212 202.835 279.119 203.021 278.934 C 203.391 278.563 203.391 277.963 203.021 277.592 L 199.665 274.236 C 199.294 273.866 198.694 273.866 198.323 274.236 C 197.952 274.607 197.952 275.208 198.323 275.578 L 201.679 278.934 C 201.863 279.119 202.106 279.212 202.35 279.212 Z " fill="rgb(254,254,254)"/><path d=" M 195.402 281.893 C 195.926 281.893 196.351 281.468 196.351 280.943 L 196.351 276.199 C 196.351 275.675 195.926 275.25 195.402 275.25 C 194.878 275.25 194.453 275.675 194.453 276.199 L 194.453 280.943 C 194.453 281.468 194.878 281.893 195.402 281.893 Z " fill="rgb(254,254,254)"/><path d=" M 188.594 278.876 C 188.836 278.876 189.079 278.783 189.265 278.599 L 192.619 275.243 C 192.99 274.872 192.99 274.272 192.619 273.901 C 192.249 273.53 191.648 273.53 191.277 273.901 L 187.923 277.257 C 187.552 277.627 187.552 278.228 187.923 278.599 C 188.107 278.783 188.351 278.876 188.594 278.876 Z " fill="rgb(254,254,254)"/><path d=" M 185.912 271.929 L 190.657 271.929 C 191.182 271.929 191.606 271.504 191.606 270.979 C 191.606 270.456 191.182 270.031 190.657 270.031 L 185.912 270.031 C 185.389 270.031 184.964 270.456 184.964 270.979 C 184.964 271.504 185.389 271.929 185.912 271.929 Z " fill="rgb(254,254,254)"/><path d=" M 192.284 268.476 C 192.526 268.476 192.77 268.383 192.955 268.197 C 193.325 267.827 193.325 267.227 192.955 266.855 L 189.6 263.5 C 189.229 263.13 188.629 263.13 188.258 263.5 C 187.888 263.871 187.888 264.472 188.258 264.843 L 191.613 268.197 C 191.799 268.383 192.041 268.476 192.284 268.476 Z " fill="rgb(254,254,254)"/><clipPath id="_clipPath_HywjHWAjQipXeQWWYK7MXRlqUji8LGDK"><path d=" M 175.267 260.348 C 210.06 279.378 253.693 266.6 272.723 231.806 C 291.754 197.012 278.975 153.379 244.182 134.349 C 209.388 115.318 165.755 128.097 146.725 162.891 C 127.694 197.684 140.473 241.317 175.267 260.348 Z " fill="rgb(255,255,255)"/></clipPath><g clip-path="url(#_clipPath_HywjHWAjQipXeQWWYK7MXRlqUji8LGDK)"><path d=" M 143.524 165.508 L 182.767 165.508 L 182.767 215.819 L 143.524 215.819 C 129.631 215.819 118.369 204.557 118.369 190.664 C 118.369 176.771 129.631 165.508 143.524 165.508 Z " fill="rgb(56,124,190)"/><path d=" M 186.791 165.508 L 428.731 165.508 C 442.624 165.508 453.886 176.771 453.886 190.664 C 453.886 204.557 442.624 215.819 428.731 215.819 L 186.791 215.819 L 186.791 165.508 Z " fill="rgb(254,254,254)"/><path d=" M 162.632 181.915 C 164.904 184.188 164.904 187.886 162.632 190.159 C 160.358 192.432 156.66 192.432 154.387 190.159 C 152.114 187.886 152.114 184.188 154.387 181.915 C 156.66 179.642 160.358 179.642 162.632 181.915 Z  M 152.651 191.895 C 155.881 195.125 161.138 195.125 164.367 191.895 C 167.598 188.665 167.598 183.409 164.367 180.179 C 161.138 176.949 155.881 176.949 152.651 180.179 C 149.421 183.409 149.421 188.665 152.651 191.895 Z " fill="rgb(254,254,254)"/><path d=" M 149.759 193.052 L 151.494 194.788 L 154.387 191.895 L 152.651 190.159 L 149.759 193.052 Z " fill="rgb(254,254,254)"/><path d=" M 141.514 203.032 C 142.232 203.751 143.398 203.751 144.117 203.032 L 151.494 195.655 C 152.213 194.937 152.213 193.771 151.494 193.052 C 150.775 192.333 149.609 192.333 148.891 193.052 L 141.514 200.429 C 140.795 201.147 140.795 202.313 141.514 203.032 Z " fill="rgb(254,254,254)"/><path d=" M 261.03 154.022 L 265.596 154.022 L 265.596 152.67 L 265.963 152.67 C 263.193 149.181 260.074 145.923 256.624 142.954 L 261.03 154.022 Z " fill="rgb(178,224,226)"/><path d=" M 265.596 154.022 L 267.009 154.022 C 266.665 153.566 266.318 153.118 265.963 152.67 L 265.596 152.67 L 265.596 154.022 Z " fill="rgb(191,218,221)"/><path d=" M 235.868 132.673 L 236.447 130.692 C 235.91 130.476 235.369 130.265 234.829 130.063 L 235.868 132.673 Z " fill="rgb(178,224,226)"/><path d=" M 221.979 154.022 L 224.043 154.022 L 226.821 144.509 L 220.38 147.589 C 220.235 147.658 220.082 147.691 219.932 147.691 C 219.586 147.691 219.251 147.52 219.053 147.212 L 217.137 144.236 L 221.979 154.022 Z  M 220.31 145.311 L 227.606 141.821 L 231.388 128.873 C 224.291 126.62 217.005 125.528 209.788 125.528 C 209.155 125.528 208.525 125.536 207.893 125.553 L 208.891 127.569 L 220.31 145.311 Z " fill="rgb(178,224,226)"/><path d=" M 224.043 154.022 L 244.367 154.022 L 229.633 154.022 L 233.319 141.401 L 226.821 144.509 L 224.043 154.022 Z  M 227.606 141.821 L 234.104 138.713 L 235.868 132.673 L 234.829 130.063 C 233.686 129.635 232.542 129.24 231.388 128.873 L 227.606 141.821 Z " fill="rgb(193,229,232)"/><path d=" M 219.932 147.691 C 220.082 147.691 220.235 147.658 220.38 147.589 L 226.821 144.509 L 233.319 141.401 L 234.104 138.713 L 227.606 141.821 L 220.31 145.311 L 208.891 127.569 L 217.137 144.236 L 219.053 147.212 C 219.251 147.52 219.586 147.691 219.932 147.691 Z " fill="rgb(235,235,234)"/><path d=" M 244.367 154.022 L 261.03 154.022 L 256.624 142.954 C 253.361 140.146 249.804 137.598 245.961 135.355 L 238.379 138.981 L 244.367 154.022 Z " fill="rgb(200,232,233)"/><path d=" M 237.606 137.038 L 243.735 134.107 C 241.343 132.82 238.91 131.683 236.447 130.692 L 235.868 132.673 L 237.606 137.038 Z " fill="rgb(200,232,233)"/><path d=" M 229.633 154.022 L 244.367 154.022 L 238.379 138.981 L 233.319 141.401 L 229.633 154.022 Z  M 234.104 138.713 L 237.606 137.038 L 235.868 132.673 L 234.104 138.713 Z " fill="rgb(211,236,237)"/><path d=" M 233.319 141.401 L 238.379 138.981 L 245.961 135.355 C 245.376 135.013 244.781 134.677 244.182 134.349 C 244.033 134.268 243.884 134.187 243.735 134.107 L 237.606 137.038 L 234.104 138.713 L 233.319 141.401 Z " fill="rgb(240,240,239)"/><path d=" M 200.09 130.581 L 202.17 125.933 C 200.796 126.08 199.427 126.266 198.066 126.491 L 200.09 130.581 Z " fill="rgb(159,217,222)"/><path d=" M 178.121 154.022 L 192.515 154.022 L 189.602 154.022 L 200.09 130.581 L 198.066 126.491 C 188.489 128.072 179.279 131.58 171.043 136.834 L 178.121 154.022 Z " fill="rgb(178,224,226)"/><path d=" M 201.62 133.674 L 205.196 125.682 L 205.191 125.675 C 204.181 125.74 203.174 125.826 202.17 125.933 L 200.09 130.581 L 201.62 133.674 Z " fill="rgb(183,226,230)"/><path d=" M 211.687 154.022 L 221.979 154.022 L 217.137 144.236 L 205.196 125.682 L 201.62 133.674 L 211.687 154.022 Z  M 208.891 127.569 L 207.893 125.553 C 207.796 125.555 207.696 125.558 207.599 125.561 L 208.891 127.569 Z " fill="rgb(200,232,233)"/><path d=" M 189.602 154.022 L 192.515 154.022 L 201.62 133.674 L 200.09 130.581 L 189.602 154.022 Z " fill="rgb(200,232,233)"/><path d=" M 192.515 154.022 L 211.687 154.022 L 201.62 133.674 L 192.515 154.022 Z " fill="rgb(211,236,237)"/><path d=" M 217.137 144.236 L 208.891 127.569 L 207.599 125.561 C 206.795 125.586 205.992 125.624 205.191 125.675 L 205.196 125.682 L 217.137 144.236 Z " fill="rgb(240,240,239)"/><path d=" M 176.469 154.022 L 178.121 154.022 L 171.043 136.834 C 170.607 137.112 170.172 137.396 169.742 137.684 L 176.469 154.022 Z " fill="rgb(200,232,233)"/><path d=" M 152.449 154.022 L 161.128 154.022 L 169.502 137.845 C 163.081 142.178 157.293 147.603 152.449 154.022 Z " fill="rgb(200,232,233)"/><path d=" M 161.128 154.022 L 176.469 154.022 L 169.742 137.684 C 169.661 137.738 169.583 137.79 169.502 137.845 L 161.128 154.022 Z " fill="rgb(211,236,237)"/><path d=" M 311.032 155.297 C 311.5 155.297 311.951 155.039 312.174 154.591 C 312.463 154.014 312.272 153.323 311.753 152.969 C 308.979 150.665 236.051 77.454 197.766 38.951 C 197.527 38.71 197.203 38.574 196.863 38.574 L 196.861 38.574 C 196.522 38.574 196.199 38.709 195.96 38.948 L 134.723 100.185 C 134.225 100.683 134.225 101.491 134.723 101.989 C 135.222 102.487 136.028 102.487 136.526 101.989 L 196.859 41.656 C 239.178 84.214 309.199 154.533 310.463 155.163 C 310.646 155.255 310.841 155.297 311.032 155.297 Z " fill="rgb(254,254,254)"/><path d=" M 141.322 104.204 L 129.282 107.43 L 132.508 95.389 L 141.322 104.204 Z " fill="rgb(254,254,254)"/><path d=" M 227.372 136.802 C 227.556 136.802 227.744 136.762 227.921 136.677 L 315.411 94.835 C 316.046 94.532 316.314 93.77 316.011 93.134 C 315.708 92.5 314.947 92.232 314.309 92.534 L 227.835 133.89 L 195.53 83.699 C 195.149 83.107 194.357 82.936 193.768 83.316 C 193.174 83.697 193.004 84.487 193.385 85.079 L 226.298 136.216 C 226.54 136.592 226.949 136.802 227.372 136.802 Z " fill="rgb(254,254,254)"/><path d=" M 190.203 89.296 L 189.602 76.846 L 200.686 82.549 L 190.203 89.296 Z " fill="rgb(254,254,254)"/><path d=" M 362.709 77.551 C 363.35 77.551 363.87 77.032 363.87 76.391 L 363.87 70.588 C 363.87 69.947 363.35 69.428 362.709 69.428 C 362.068 69.428 361.549 69.947 361.549 70.588 L 361.549 76.391 C 361.549 77.032 362.068 77.551 362.709 77.551 Z " fill="rgb(254,254,254)"/><path d=" M 366.933 79.541 C 367.229 79.541 367.526 79.428 367.753 79.201 L 371.856 75.098 C 372.31 74.645 372.31 73.91 371.856 73.457 C 371.403 73.003 370.669 73.003 370.215 73.457 L 366.112 77.56 C 365.659 78.013 365.659 78.748 366.112 79.201 C 366.339 79.428 366.636 79.541 366.933 79.541 Z " fill="rgb(254,254,254)"/><path d=" M 368.512 83.935 L 374.314 83.935 C 374.956 83.935 375.475 83.415 375.475 82.774 C 375.475 82.133 374.956 81.613 374.314 81.613 L 368.512 81.613 C 367.871 81.613 367.352 82.133 367.352 82.774 C 367.352 83.415 367.871 83.935 368.512 83.935 Z " fill="rgb(254,254,254)"/><path d=" M 370.625 92.261 C 370.922 92.261 371.22 92.148 371.446 91.921 C 371.899 91.468 371.899 90.733 371.446 90.28 L 367.343 86.177 C 366.89 85.724 366.155 85.724 365.702 86.177 C 365.249 86.63 365.249 87.365 365.702 87.818 L 369.805 91.921 C 370.032 92.148 370.329 92.261 370.625 92.261 Z " fill="rgb(254,254,254)"/><path d=" M 362.129 95.54 C 362.77 95.54 363.29 95.02 363.29 94.379 L 363.29 88.577 C 363.29 87.935 362.77 87.416 362.129 87.416 C 361.488 87.416 360.968 87.935 360.968 88.577 L 360.968 94.379 C 360.968 95.02 361.488 95.54 362.129 95.54 Z " fill="rgb(254,254,254)"/><path d=" M 353.802 91.851 C 354.099 91.851 354.396 91.737 354.623 91.511 L 358.726 87.408 C 359.179 86.954 359.179 86.22 358.726 85.767 C 358.273 85.313 357.539 85.313 357.085 85.767 L 352.982 89.87 C 352.528 90.323 352.528 91.058 352.982 91.511 C 353.208 91.737 353.505 91.851 353.802 91.851 Z " fill="rgb(254,254,254)"/><path d=" M 350.523 83.354 L 356.326 83.354 C 356.967 83.354 357.487 82.834 357.487 82.194 C 357.487 81.553 356.967 81.033 356.326 81.033 L 350.523 81.033 C 349.883 81.033 349.363 81.553 349.363 82.194 C 349.363 82.834 349.883 83.354 350.523 83.354 Z " fill="rgb(254,254,254)"/><path d=" M 358.316 79.131 C 358.613 79.131 358.91 79.018 359.136 78.791 C 359.59 78.337 359.59 77.603 359.136 77.15 L 355.033 73.046 C 354.58 72.593 353.845 72.593 353.392 73.046 C 352.939 73.5 352.939 74.234 353.392 74.688 L 357.495 78.791 C 357.722 79.018 358.019 79.131 358.316 79.131 Z " fill="rgb(254,254,254)"/><path d=" M 403.636 244.238 C 404.277 244.238 404.797 243.719 404.797 243.078 L 404.797 237.275 C 404.797 236.634 404.277 236.115 403.636 236.115 C 402.996 236.115 402.476 236.634 402.476 237.275 L 402.476 243.078 C 402.476 243.719 402.996 244.238 403.636 244.238 Z " fill="rgb(254,254,254)"/><path d=" M 407.86 246.228 C 408.157 246.228 408.454 246.115 408.68 245.888 L 412.784 241.785 C 413.237 241.332 413.237 240.597 412.784 240.144 C 412.33 239.69 411.596 239.69 411.143 240.144 L 407.039 244.247 C 406.586 244.7 406.586 245.435 407.039 245.888 C 407.266 246.115 407.563 246.228 407.86 246.228 Z " fill="rgb(254,254,254)"/><path d=" M 409.439 250.622 L 415.242 250.622 C 415.883 250.622 416.402 250.102 416.402 249.461 C 416.402 248.82 415.883 248.3 415.242 248.3 L 409.439 248.3 C 408.798 248.3 408.278 248.82 408.278 249.461 C 408.278 250.102 408.798 250.622 409.439 250.622 Z " fill="rgb(254,254,254)"/><path d=" M 411.553 258.948 C 411.85 258.948 412.147 258.835 412.373 258.608 C 412.827 258.154 412.827 257.421 412.373 256.967 L 408.27 252.864 C 407.816 252.41 407.083 252.41 406.629 252.864 C 406.176 253.317 406.176 254.052 406.629 254.505 L 410.732 258.608 C 410.959 258.835 411.256 258.948 411.553 258.948 Z " fill="rgb(254,254,254)"/><path d=" M 403.056 262.227 C 403.697 262.227 404.216 261.707 404.216 261.066 L 404.216 255.264 C 404.216 254.623 403.697 254.104 403.056 254.104 C 402.415 254.104 401.895 254.623 401.895 255.264 L 401.895 261.066 C 401.895 261.707 402.415 262.227 403.056 262.227 Z " fill="rgb(254,254,254)"/><path d=" M 394.729 258.538 C 395.026 258.538 395.323 258.425 395.55 258.198 L 399.653 254.095 C 400.106 253.642 400.106 252.907 399.653 252.453 C 399.2 252 398.465 252 398.012 252.453 L 393.909 256.557 C 393.456 257.01 393.456 257.744 393.909 258.198 C 394.135 258.425 394.433 258.538 394.729 258.538 Z " fill="rgb(254,254,254)"/><path d=" M 391.451 250.041 L 397.253 250.041 C 397.894 250.041 398.414 249.521 398.414 248.881 C 398.414 248.24 397.894 247.72 397.253 247.72 L 391.451 247.72 C 390.81 247.72 390.29 248.24 390.29 248.881 C 390.29 249.521 390.81 250.041 391.451 250.041 Z " fill="rgb(254,254,254)"/><path d=" M 399.243 245.818 C 399.54 245.818 399.837 245.705 400.064 245.478 C 400.517 245.024 400.517 244.29 400.064 243.837 L 395.96 239.733 C 395.507 239.28 394.772 239.28 394.319 239.733 C 393.866 240.187 393.866 240.921 394.319 241.375 L 398.422 245.478 C 398.649 245.705 398.946 245.818 399.243 245.818 Z " fill="rgb(254,254,254)"/><path d=" M 296.96 304.618 C 297.602 304.618 298.121 304.099 298.121 303.458 L 298.121 297.655 C 298.121 297.014 297.602 296.494 296.96 296.494 C 296.32 296.494 295.8 297.014 295.8 297.655 L 295.8 303.458 C 295.8 304.099 296.32 304.618 296.96 304.618 Z " fill="rgb(254,254,254)"/><path d=" M 301.184 306.607 C 301.481 306.607 301.778 306.494 302.004 306.268 L 306.108 302.164 C 306.561 301.711 306.561 300.977 306.108 300.523 C 305.654 300.07 304.92 300.07 304.467 300.523 L 300.363 304.627 C 299.91 305.08 299.91 305.814 300.363 306.268 C 300.59 306.494 300.887 306.607 301.184 306.607 Z " fill="rgb(254,254,254)"/><path d=" M 302.763 311.001 L 308.566 311.001 C 309.207 311.001 309.727 310.481 309.727 309.841 C 309.727 309.2 309.207 308.681 308.566 308.681 L 302.763 308.681 C 302.123 308.681 301.603 309.2 301.603 309.841 C 301.603 310.481 302.123 311.001 302.763 311.001 Z " fill="rgb(254,254,254)"/><path d=" M 304.877 319.328 C 305.174 319.328 305.471 319.215 305.697 318.988 C 306.151 318.534 306.151 317.8 305.697 317.347 L 301.594 313.243 C 301.141 312.79 300.407 312.79 299.953 313.243 C 299.5 313.697 299.5 314.432 299.953 314.885 L 304.057 318.988 C 304.283 319.215 304.58 319.328 304.877 319.328 Z " fill="rgb(254,254,254)"/><path d=" M 296.38 322.606 C 297.021 322.606 297.541 322.087 297.541 321.446 L 297.541 315.644 C 297.541 315.003 297.021 314.482 296.38 314.482 C 295.739 314.482 295.22 315.003 295.22 315.644 L 295.22 321.446 C 295.22 322.087 295.739 322.606 296.38 322.606 Z " fill="rgb(254,254,254)"/><path d=" M 288.054 318.918 C 288.351 318.918 288.647 318.805 288.874 318.577 L 292.978 314.475 C 293.431 314.021 293.431 313.287 292.978 312.833 C 292.524 312.38 291.79 312.38 291.336 312.833 L 287.233 316.937 C 286.78 317.39 286.78 318.124 287.233 318.577 C 287.459 318.805 287.757 318.918 288.054 318.918 Z " fill="rgb(254,254,254)"/><path d=" M 284.775 310.421 L 290.578 310.421 C 291.218 310.421 291.738 309.901 291.738 309.261 C 291.738 308.619 291.218 308.1 290.578 308.1 L 284.775 308.1 C 284.134 308.1 283.614 308.619 283.614 309.261 C 283.614 309.901 284.134 310.421 284.775 310.421 Z " fill="rgb(254,254,254)"/><path d=" M 292.567 306.197 C 292.864 306.197 293.161 306.084 293.388 305.857 C 293.841 305.404 293.841 304.67 293.388 304.217 L 289.284 300.113 C 288.831 299.66 288.097 299.66 287.644 300.113 C 287.19 300.566 287.19 301.301 287.644 301.754 L 291.747 305.857 C 291.973 306.084 292.271 306.197 292.567 306.197 Z " fill="rgb(254,254,254)"/></g><line x1="255.128" y1="473.458" x2="255.129" y2="473.446"/><path d=" M 255.039 474.021 L 255.037 474.021 C 255.071 473.86 255.097 473.701 255.118 473.545 C 255.097 473.703 255.071 473.862 255.039 474.021 Z " fill="rgb(254,254,254)"/><line x1="254.458" y1="475.651" x2="254.469" y2="475.629"/><line x1="254.513" y1="475.543" x2="254.558" y2="475.452"/><path d=" M 254.876 474.648 C 254.79 474.92 254.686 475.183 254.566 475.434 C 254.688 475.178 254.79 474.914 254.874 474.648 L 254.876 474.648 Z " fill="rgb(254,254,254)"/></g></g></svg>