<?xml version="1.0" standalone="no"?>
<!DOCTYPE svg PUBLIC "-//W3C//DTD SVG 20010904//EN"
 "http://www.w3.org/TR/2001/REC-SVG-20010904/DTD/svg10.dtd">
<svg version="1.0" xmlns="http://www.w3.org/2000/svg"
 width="475.000000pt" height="475.000000pt" viewBox="0 0 475.000000 475.000000"
 preserveAspectRatio="xMidYMid meet">
<metadata>
Created by potrace 1.14, written by Peter Selinger 2001-2017
</metadata>
<g transform="translate(0.000000,475.000000) scale(0.100000,-0.100000)"
fill="#000000" stroke="none">
<path d="M2070 4609 c-130 -19 -273 -50 -350 -76 -25 -8 -52 -16 -60 -18 -36
-7 -233 -91 -320 -136 -461 -237 -851 -657 -1040 -1119 -12 -30 -28 -68 -35
-85 -49 -112 -115 -389 -134 -565 -9 -85 -8 -470 1 -486 3 -5 8 -36 12 -69 3
-33 10 -75 15 -93 6 -18 10 -35 10 -37 0 -3 2 -18 5 -33 4 -15 8 -37 10 -48
10 -51 71 -237 108 -324 45 -109 139 -290 174 -337 13 -17 24 -34 24 -38 0
-11 111 -158 174 -230 132 -151 283 -287 421 -380 33 -22 62 -43 65 -46 9 -11
144 -86 235 -132 149 -74 413 -163 539 -182 21 -3 42 -7 46 -10 4 -2 31 -7 61
-10 30 -3 65 -8 79 -11 44 -10 402 -13 480 -4 139 17 175 22 181 26 4 2 22 6
40 9 19 2 61 11 94 20 33 8 67 17 76 19 82 21 259 90 374 146 252 124 408 235
604 430 180 179 318 372 432 605 98 200 181 464 204 650 3 28 8 61 11 75 3 14
6 113 8 220 3 173 -7 336 -28 430 -3 14 -7 35 -10 46 -2 12 -7 37 -10 55 -18
117 -110 367 -193 531 -51 102 -189 320 -229 363 -11 11 -32 37 -47 57 -44 59
-224 236 -312 307 -312 251 -737 436 -1095 477 -30 4 -59 9 -64 12 -6 3 -105
7 -220 8 -162 1 -240 -3 -336 -17z"/>
</g>
</svg>
